<svg xmlns="http://www.w3.org/2000/svg"  viewBox="0 0 204 204" width="204" height="204">
<path d="M25.111 12.8v-.923h-1.752l-.77-.013c-.658 0-1.108.433-1.285.937v-.923h-1.962v5.988h1.962v-1.284-1.988c0-.597.484-1.081 1.081-1.081h.765v4.352h1.962v-1.284-1.988c0-.597.484-1.081 1.081-1.081h.974v-1.636l-.77-.013C25.738 11.863 25.288 12.297 25.111 12.8zM11.152 12.002L10.099 15.463 9.047 12.002 7.085 12.002 9.216 17.99 9.331 17.99 10.868 17.99 10.983 17.99 13.113 12.002zM3.136 12.002v-.399c0-.35.283-.633.633-.633h1.238V9.328H3.307c-1.177 0-2.132.954-2.132 2.132v.543H.028v1.587h1.147v4.4h1.962v-4.4h1.871v4.4H6.97v-4.4-1.587H5.008 3.136zM15.833 11.921h-.239c-1.607 0-2.91 1.303-2.91 2.91v.329c0 1.607 1.303 2.91 2.91 2.91h.531c1.1 0 2.042-.679 2.429-1.641l-1.73-.505c0 0-.207.593-.929.593-.815 0-1.246-.446-1.303-.952h0v-.003c-.004-.037-.006-.074-.006-.111h2.213 1.946v-.619C18.743 13.224 17.44 11.921 15.833 11.921zM14.587 14.296c.024-.538.467-.968 1.011-.968h.187c.544 0 .987.429 1.011.968H14.587zM28.754 15.689c-.674 0-1.22.546-1.22 1.22 0 .674.546 1.22 1.22 1.22.674 0 1.22-.546 1.22-1.22C29.974 16.235 29.428 15.689 28.754 15.689z"/>
<defs>
<linearGradient id="paint0_linear_16_349" x1="-12.4348" y1="91.2145" x2="228.124" y2="92.098" gradientUnits="userSpaceOnUse">
<stop stop-color="#AA367C"/>
<stop offset="1" stop-color="#4A2FBD"/>
</linearGradient>
</defs>
</svg>